<!-- icon666.com - MILLIONS OF FREE VECTOR ICONS --><svg id="Icons" viewBox="0 0 64 64" xmlns="http://www.w3.org/2000/svg"><path d="m29.782 61.728a28.2 28.2 0 0 1 -19.941-48.143 29.594 29.594 0 0 1 26.9-7.6l-1.225 1.971a26.2 26.2 0 1 0 19.837 19.837l1.843-1.08a28.387 28.387 0 0 1 -7.472 26.755 28.017 28.017 0 0 1 -19.942 8.26z" fill="#dd472f"></path><path d="m38.086 4.64-28.073 28.073a1.815 1.815 0 0 0 0 2.567l18.025 18.025a1.815 1.815 0 0 0 2.566 0l28.352-28.352 1.044-21.306zm16.985 7.26a2.268 2.268 0 1 1 0-3.207 2.267 2.267 0 0 1 0 3.207z" fill="#efb745"></path><path d="m35.426 44.305a1.817 1.817 0 0 1 -2.567 0l-17.218-17.219-5.628 5.627a1.815 1.815 0 0 0 0 2.567l18.025 18.025a1.815 1.815 0 0 0 2.566 0l28.352-28.352.215-4.394z" fill="#d1832f"></path><path d="m10.013 35.28 18.025 18.025a1.815 1.815 0 0 0 2.566 0l3.1-3.1-20.6-20.587-3.1 3.1a1.815 1.815 0 0 0 .009 2.562z" fill="#dd472f"></path><path d="m31.966 48.461-1.683 1.683a1.815 1.815 0 0 1 -2.567 0l-17.567-17.567-.136.136a1.815 1.815 0 0 0 0 2.567l18.025 18.025a1.815 1.815 0 0 0 2.566 0l3.1-3.1z" fill="#b7291a"></path><g fill="#dd472f"><path d="m29.162 30.209a3.724 3.724 0 0 0 -1.939 1c-.806.806-.99 1.5-.48 2.011.378.378.787.316 1.449.041l1.614-.655a2.661 2.661 0 0 1 3.225.429c1.318 1.317 1.256 3.094-.428 4.778a4.783 4.783 0 0 1 -2.419 1.357l-1.369-1.37a4.8 4.8 0 0 0 2.585-1.274c.725-.724.91-1.419.359-1.969-.378-.378-.8-.327-1.532-.021l-1.7.7a2.532 2.532 0 0 1 -3.074-.52c-1.234-1.235-1.081-3.144.573-4.8a4.407 4.407 0 0 1 2.205-1.285z"></path><path d="m30.706 25.438 1.775-1.775 9.413 4.637-1.45 1.449-2.124-1.085-2.695 2.7 1.075 2.129-1.39 1.389zm6.084 2.452-3.92-2 1.981 3.941z"></path><path d="m35.557 20.588 1.368-1.368 5.775 5.78 3.235-3.235.929 1.561-4.284 4.285z"></path><path d="m40.765 15.38 4.777-4.78.919 1.574-3.082 3.082 1.552 1.551 2.684-2.684.918 1.551-2.368 2.368 1.746 1.746 3.2-3.2 1.582.908-4.91 4.91z"></path></g></svg>