<?xml version="1.0" ?>
<!-- Uploaded to: SVG Repo, www.svgrepo.com, Generator: SVG Repo Mixer Tools -->
<svg width="800px" height="800px" viewBox="0 0 64 64" id="svg5" version="1.1" xml:space="preserve" xmlns="http://www.w3.org/2000/svg" xmlns:svg="http://www.w3.org/2000/svg">
<defs id="defs2"/>
<g id="layer1" transform="translate(-192,-480)">
<path d="m 198.99414,520.00781 c -0.76986,0 -1.53949,0.2895 -2.12109,0.8711 -1.1632,1.16319 -1.16319,3.08095 0,4.24414 1.16319,1.16319 3.07899,1.16319 4.24218,0 1.1632,-1.1632 1.1632,-3.08095 0,-4.24414 -0.58159,-0.5816 -1.35123,-0.8711 -2.12109,-0.8711 z m 0,1.98633 c 0.25383,0 0.50758,0.0994 0.70703,0.29883 0.3989,0.3989 0.3989,1.01516 0,1.41406 -0.3989,0.3989 -1.01516,0.3989 -1.41406,0 -0.3989,-0.3989 -0.3989,-1.01516 0,-1.41406 0.19945,-0.19945 0.4532,-0.29883 0.70703,-0.29883 z" id="path47968" style="color:#000000;fill:#000000;fill-rule:evenodd;stroke-linecap:round;stroke-linejoin:round;stroke-miterlimit:4.1;-inkscape-stroke:none"/>
<path d="m 217.43945,518.80078 c -0.76986,0 -1.53949,0.2895 -2.12109,0.8711 -1.1632,1.16319 -1.1632,3.07899 0,4.24218 1.16319,1.16319 3.07899,1.1632 4.24219,0 1.16319,-1.16319 1.16319,-3.079 0,-4.24218 -0.5816,-0.5816 -1.35124,-0.8711 -2.1211,-0.8711 z m 0,1.98633 c 0.25383,0 0.50758,0.0994 0.70703,0.29883 0.3989,0.3989 0.3989,1.01516 0,1.41406 -0.3989,0.3989 -1.01516,0.3989 -1.41406,0 -0.3989,-0.3989 -0.3989,-1.01516 0,-1.41406 0.19945,-0.19945 0.45321,-0.29883 0.70703,-0.29883 z" id="path47966" style="color:#000000;fill:#000000;fill-rule:evenodd;stroke-linecap:round;stroke-linejoin:round;stroke-miterlimit:4.1;-inkscape-stroke:none"/>
<path d="m 231,484 c -1.29413,0 -2.40575,0.84106 -2.82227,2 H 201 c -0.55226,5e-5 -0.99995,0.44774 -1,1 v 7 c 5e-5,0.55226 0.44774,0.99995 1,1 h 2.9668 v 39 H 197 c -0.55226,6e-5 -0.99994,0.44774 -1,1 v 4 c 6e-5,0.55226 0.44774,0.99994 1,1 h 54 c 0.55226,-6e-5 0.99994,-0.44774 1,-1 v -4 c -6e-5,-0.55226 -0.44774,-0.99994 -1,-1 h -7 v -39 h 3 c 0.55226,-5e-5 0.99995,-0.44774 1,-1 v -7 c -5e-5,-0.55226 -0.44774,-0.99995 -1,-1 h -4.17773 c -0.41652,-1.15894 -1.52814,-2 -2.82227,-2 z m 0,2 h 9 c 0.5713,0 1,0.4287 1,1 0,0.5713 -0.4287,1 -1,1 h -4 c -0.55226,6e-5 -0.99994,0.44774 -1,1 v 9 c 0,0.5713 -0.4287,1 -1,1 -0.5713,0 -1,-0.4287 -1,-1 v -9 c -6e-5,-0.55226 -0.44774,-0.99994 -1,-1 h -1 c -0.5713,0 -1,-0.4287 -1,-1 0,-0.5713 0.4287,-1 1,-1 z m -29,2 h 6 v 5 h -6 z m 8,0 h 10 v 12 c 0,0.5713 -0.4287,1 -1,1 -0.5713,0 -1,-0.4287 -1,-1 v -8 c 0,-1.64471 -1.3553,-3 -3,-3 -1.6447,0 -3,1.35529 -3,3 v 1 c 0,0.5713 -0.4287,1 -1,1 -0.5713,0 -1,-0.4287 -1,-1 z m 12,0 h 6.17773 c 0.41652,1.15894 1.52814,2 2.82227,2 v 3 h -9 z m 20.82227,0 H 246 v 5 h -9 v -3 h 3 c 1.29413,0 2.40575,-0.84106 2.82227,-2 z M 215,491 c 0.5713,0 1,0.42869 1,1 v 1 h -2 v -1 c 0,-0.57131 0.4287,-1 1,-1 z m -9.0332,4 h 2.81054 c 0.55093,0.61082 1.34424,1 2.22266,1 0.87842,0 1.67173,-0.38918 2.22266,-1 H 216 v 2 h -7.0332 c -0.55226,6e-5 -0.99994,0.44774 -1,1 v 33 c 6e-5,0.55226 0.44774,0.99994 1,1 H 239 c 0.55226,-6e-5 0.99994,-0.44774 1,-1 v -33 c -6e-5,-0.55226 -0.44774,-0.99994 -1,-1 h -2 v -2 h 5 v 39 H 205.9668 Z M 222,495 h 9 v 2 h -9 z m 9.17383,3.95898 C 231.57959,500.13726 232.69197,501 234,501 c 1.30803,0 2.42041,-0.86274 2.82617,-2.04102 -3.4e-4,0.0137 8.7e-4,0.0277 -0.004,0.041 H 238 v 15 h -13 v -15 h 6.17773 c -0.005,-0.0133 -0.004,-0.0273 -0.004,-0.041 z M 209.9668,499 H 216 v 1 c 0,1.6447 1.3553,3 3,3 1.6447,0 3,-1.3553 3,-3 v -1 h 1 v 15 h -13.0332 z m 0,17 H 223 v 14 H 209.9668 Z M 225,516 h 13 v 14 h -13 z m -27,20 h 52 v 2 h -52 z" id="path47964" style="color:#000000;fill:#000000;fill-rule:evenodd;stroke-linecap:round;stroke-linejoin:round;stroke-miterlimit:4.1;-inkscape-stroke:none"/>
<path d="m 228.84271,510.22278 v 0" id="path8863" style="color:#000000;fill:none;fill-rule:evenodd;stroke-width:2;stroke-linecap:round;stroke-linejoin:round;stroke-miterlimit:4.1"/>
<path d="m 229.54982,509.51567 a 1,1 0 0 0 -1.41422,0 1,1 0 0 0 0,1.41422 1,1 0 0 0 1.41422,0 1,1 0 0 0 0,-1.41422 z" id="path8865" style="color:#000000;fill:#000000;fill-rule:evenodd;stroke-linecap:round;stroke-linejoin:round;stroke-miterlimit:4.1"/>
<path d="m 247,504 v 0" id="path8869" style="color:#000000;fill:none;fill-rule:evenodd;stroke-width:2;stroke-linecap:round;stroke-linejoin:round;stroke-miterlimit:4.1"/>
<path d="m 247.70711,503.29289 a 1,1 0 0 0 -1.41421,0 1,1 0 0 0 0,1.41421 1,1 0 0 0 1.41421,0 1,1 0 0 0 0,-1.41421 z" id="path8871" style="color:#000000;fill:#000000;fill-rule:evenodd;stroke-linecap:round;stroke-linejoin:round;stroke-miterlimit:4.1"/>
<path d="m 230.39316,524.07416 v 0" id="path8883" style="color:#000000;fill:none;fill-rule:evenodd;stroke-width:2;stroke-linecap:round;stroke-linejoin:round;stroke-miterlimit:4.1"/>
<path d="m 231.10026,523.36705 a 1,1 0 0 0 -1.41421,0 1,1 0 0 0 0,1.41422 1,1 0 0 0 1.41421,0 1,1 0 0 0 0,-1.41422 z" id="path8885" style="color:#000000;fill:#000000;fill-rule:evenodd;stroke-linecap:round;stroke-linejoin:round;stroke-miterlimit:4.1"/>
<path d="m 247,527 v 0" id="path12157" style="color:#000000;fill:none;fill-rule:evenodd;stroke-width:2;stroke-linecap:round;stroke-linejoin:round;stroke-miterlimit:4.1"/>
<path d="m 247.70711,526.29289 a 1,1 0 0 0 -1.41421,0 1,1 0 0 0 0,1.41422 1,1 0 0 0 1.41421,0 1,1 0 0 0 0,-1.41422 z" id="path12159" style="color:#000000;fill:#000000;fill-rule:evenodd;stroke-linecap:round;stroke-linejoin:round;stroke-miterlimit:4.1"/>
<path d="m 215.30833,507.12194 v 0" id="path13266" style="color:#000000;fill:none;fill-rule:evenodd;stroke-width:2;stroke-linecap:round;stroke-linejoin:round;stroke-miterlimit:4.1"/>
<path d="m 216.01544,506.41484 a 1,1 0 0 0 -1.41422,0 1,1 0 0 0 0,1.41421 1,1 0 0 0 1.41422,0 1,1 0 0 0 0,-1.41421 z" id="path13268" style="color:#000000;fill:#000000;fill-rule:evenodd;stroke-linecap:round;stroke-linejoin:round;stroke-miterlimit:4.1"/>
<path d="m 199.99371,503 v 0" id="path19850" style="color:#000000;fill:none;fill-rule:evenodd;stroke-width:2;stroke-linecap:round;stroke-linejoin:round;stroke-miterlimit:4.1"/>
<path d="m 200.70081,502.29289 a 1,1 0 0 0 -1.41421,0 1,1 0 0 0 0,1.41421 1,1 0 0 0 1.41421,0 1,1 0 0 0 0,-1.41421 z" id="path19852" style="color:#000000;fill:#000000;fill-rule:evenodd;stroke-linecap:round;stroke-linejoin:round;stroke-miterlimit:4.1"/>
</g>
</svg>